<svg width="28" height="28" viewBox="0 0 28 28" fill="none" xmlns="http://www.w3.org/2000/svg">
<path d="M2.33594 12.2498C2.33594 11.3506 2.35164 10.4728 2.38154 9.62519C2.47923 6.85614 2.52808 5.47161 3.65435 4.33686C4.78063 3.20212 6.20425 3.1412 9.0515 3.01939C10.6136 2.95255 12.277 2.9165 14.0026 2.9165C15.7282 2.9165 17.3915 2.95255 18.9537 3.01939C21.801 3.1412 23.2246 3.20212 24.3508 4.33686C25.4771 5.47161 25.526 6.85614 25.6237 9.62519C25.6535 10.4728 25.6693 11.3506 25.6693 12.2498C25.6693 13.1491 25.6535 14.0269 25.6237 14.8745C25.526 17.6436 25.4771 19.0281 24.3508 20.1629C23.2246 21.2976 21.801 21.3585 18.9536 21.4803C18.0974 21.5169 17.2107 21.5443 16.3001 21.5616C15.4355 21.5779 15.0031 21.5862 14.6233 21.7309C14.2434 21.8755 13.9239 22.1496 13.2845 22.6977L10.7418 24.8781C10.5875 25.0104 10.3908 25.0832 10.1875 25.0832C9.71719 25.0832 9.33594 24.7019 9.33594 24.2316V21.4921C9.24076 21.4882 9.14595 21.4844 9.05149 21.4803C6.20424 21.3585 4.78063 21.2976 3.65435 20.1628C2.52808 19.0281 2.47923 17.6436 2.38154 14.8745C2.35164 14.0269 2.33594 13.1491 2.33594 12.2498Z" stroke="url(#paint0_linear_6815_154)" stroke-width="1.5" stroke-linecap="round" stroke-linejoin="round"/>
<path d="M13.9617 7.61691C13.9708 7.57236 14.0345 7.57236 14.0436 7.61691C14.5162 9.9294 16.3233 11.7366 18.6359 12.2092C18.6804 12.2183 18.6804 12.282 18.6359 12.2911C16.3233 12.7637 14.5162 14.5709 14.0436 16.8835C14.0345 16.9279 13.9708 16.9279 13.9617 16.8835C13.489 14.5709 11.6819 12.7637 9.36935 12.2911C9.3248 12.282 9.3248 12.2183 9.36935 12.2092C11.6819 11.7366 13.489 9.9294 13.9617 7.61691Z" stroke="url(#paint1_linear_6815_154)" stroke-width="1.5" stroke-linejoin="round"/>
<defs>
<linearGradient id="paint0_linear_6815_154" x1="14.0026" y1="2.9165" x2="14.0026" y2="25.0832" gradientUnits="userSpaceOnUse">
<stop stop-color="#FF5B00"/>
<stop offset="1" stop-color="#FF7C33"/>
</linearGradient>
<linearGradient id="paint1_linear_6815_154" x1="14.0026" y1="7.5835" x2="14.0026" y2="16.9168" gradientUnits="userSpaceOnUse">
<stop stop-color="#FF5B00"/>
<stop offset="1" stop-color="#FF7C33"/>
</linearGradient>
</defs>
</svg>
