<svg width="25" height="24" viewBox="0 0 25 24" fill="none" xmlns="http://www.w3.org/2000/svg">
<path d="M12.3757 5.45041C12.3848 5.40585 12.4485 5.40585 12.4576 5.45041C12.9302 7.76289 14.7374 9.5701 17.05 10.0427C17.0944 10.0518 17.0944 10.1155 17.05 10.1246C14.7374 10.5972 12.9302 12.4044 12.4576 14.717C12.4485 14.7614 12.3848 14.7614 12.3757 14.717C11.9031 12.4044 10.0959 10.5972 7.78342 10.1246C7.73886 10.1155 7.73886 10.0518 7.78342 10.0427C10.0959 9.5701 11.9031 7.76289 12.3757 5.45041Z" stroke="url(#paint0_linear_6832_15042)" strokeWidth="1.5" strokeLinejoin="round"/>
<path d="M0.75 10.0833C0.75 9.18408 0.765703 8.30626 0.795605 7.45868C0.89329 4.68964 0.942138 3.3051 2.06842 2.17036C3.19469 1.03561 4.61832 0.9747 7.46557 0.852888C9.0277 0.78605 10.6911 0.75 12.4167 0.75C14.1423 0.75 15.8056 0.78605 17.3678 0.852888C20.215 0.9747 21.6387 1.03561 22.7649 2.17036C23.8912 3.3051 23.9401 4.68964 24.0377 7.45868C24.0676 8.30626 24.0833 9.18408 24.0833 10.0833C24.0833 10.9826 24.0676 11.8604 24.0377 12.708C23.9401 15.4771 23.8912 16.8615 22.7649 17.9964C21.6387 19.1311 20.215 19.192 17.3677 19.3138C16.5114 19.3504 15.6248 19.3778 14.7142 19.3951C13.8496 19.4114 13.4172 19.4197 13.0373 19.5644C12.6575 19.709 12.3379 19.9831 11.6986 20.5312L9.15587 22.7116C9.00152 22.8439 8.80489 22.9167 8.60156 22.9167C8.13126 22.9167 7.75 22.5354 7.75 22.0651V19.3255C7.65482 19.3217 7.56001 19.3178 7.46556 19.3138C4.61831 19.192 3.19469 19.1311 2.06842 17.9962C0.942138 16.8615 0.89329 15.4771 0.795605 12.708C0.765703 11.8604 0.75 10.9826 0.75 10.0833Z" stroke="url(#paint1_linear_6832_15042)" strokeWidth="1.5" strokeLinecap="round" strokeLinejoin="round"/>
<defs>
<linearGradient id="paint0_linear_6832_15042" x1="12.4167" y1="5.41699" x2="12.4167" y2="14.7503" gradientUnits="userSpaceOnUse">
<stop stop-color="#FF5B00"/>
<stop offset="1" stop-color="#FF7C33"/>
</linearGradient>
<linearGradient id="paint1_linear_6832_15042" x1="12.4167" y1="0.75" x2="12.4167" y2="22.9167" gradientUnits="userSpaceOnUse">
<stop stop-color="#FF5B00"/>
<stop offset="1" stop-color="#FF7C33"/>
</linearGradient>
</defs>
</svg>
