<svg width="20" height="20" viewBox="0 0 20 20" fill="none" xmlns="http://www.w3.org/2000/svg">
<g clip-path="url(#clip0_6710_163944)">
<path d="M17.2672 7.11249H12.9759V2.63217C12.9759 1.9853 12.7231 1.37624 12.2647 0.917798C12.0401 0.691828 11.773 0.51262 11.4787 0.390538C11.1844 0.268455 10.8689 0.205919 10.5503 0.206548H2.7225C1.385 0.206548 0.296875 1.29467 0.296875 2.63217V7.85061C0.296875 9.18811 1.385 10.2762 2.7225 10.2762H2.90594V11.7644C2.90511 11.9116 2.93344 12.0576 2.98928 12.1939C3.04512 12.3302 3.12737 12.4541 3.2313 12.5585C3.33523 12.6629 3.45879 12.7456 3.59484 12.802C3.7309 12.8584 3.87677 12.8874 4.02406 12.8872C4.3175 12.8872 4.60375 12.7706 4.81406 12.5537L7.01406 10.3656V14.7562C7.01406 16.0934 8.10344 17.1815 9.44219 17.1815H12.8862L15.1712 19.4544C15.3253 19.6139 15.5236 19.7237 15.7406 19.7694C15.9577 19.8151 16.1834 19.7948 16.3888 19.7109C16.5956 19.6274 16.7727 19.4837 16.897 19.2985C17.0214 19.1132 17.0873 18.895 17.0863 18.6719V17.1812H17.2672C18.6062 17.1812 19.6956 16.0934 19.6956 14.7559V9.53717C19.6956 8.20061 18.6062 7.11249 17.2672 7.11249ZM6.91031 9.33874C6.78639 9.33876 6.66751 9.38786 6.57969 9.4753L4.14687 11.895C4.12355 11.9211 4.09253 11.9392 4.05828 11.9466C4.02402 11.9541 3.9883 11.9504 3.95625 11.9362C3.92166 11.9232 3.8921 11.8996 3.87182 11.8687C3.85154 11.8378 3.8416 11.8013 3.84344 11.7644V9.80749C3.84344 9.68317 3.79405 9.56394 3.70614 9.47603C3.61824 9.38812 3.49901 9.33874 3.37469 9.33874H2.7225C2.32795 9.33832 1.94968 9.18141 1.67069 8.90242C1.39171 8.62343 1.23479 8.24516 1.23438 7.85061V2.63217C1.23479 2.23762 1.39171 1.85935 1.67069 1.58037C1.94968 1.30138 2.32795 1.14446 2.7225 1.14405H10.55C10.9469 1.14405 11.32 1.29905 11.6016 1.58061C11.7403 1.71824 11.8503 1.88202 11.9252 2.06248C12.0002 2.24293 12.0385 2.43646 12.0381 2.63186V7.8503C12.0376 8.24487 11.8806 8.62314 11.6016 8.90212C11.3226 9.1811 10.9443 9.33801 10.5497 9.33842H6.91031V9.33874ZM18.7581 14.7562C18.7573 15.1511 18.5999 15.5295 18.3203 15.8085C18.0408 16.0874 17.6621 16.2441 17.2672 16.244H16.6175C16.4932 16.244 16.374 16.2934 16.286 16.3813C16.1981 16.4693 16.1487 16.5885 16.1487 16.7128V18.6722C16.1504 18.7088 16.1405 18.745 16.1203 18.7756C16.1002 18.8062 16.0709 18.8296 16.0366 18.8425C15.995 18.8591 15.9162 18.8759 15.8384 18.7962L13.4103 16.3809C13.3224 16.2935 13.2036 16.2445 13.0797 16.2444H9.44219C9.04736 16.2443 8.66869 16.0876 8.38924 15.8087C8.10979 15.5298 7.95239 15.1514 7.95156 14.7565V10.2762H10.5497C11.82 10.2762 12.8631 9.29467 12.9653 8.0503H17.2669C18.0891 8.0503 18.7578 8.71749 18.7578 9.5378L18.7581 14.7562Z" fill="black"/>
<path d="M10.4566 11.4584C10.0753 11.4584 9.765 11.769 9.765 12.15C9.765 12.5309 10.0756 12.8415 10.4566 12.8415C10.8381 12.8415 11.1487 12.5309 11.1487 12.15C11.1487 11.769 10.8384 11.4584 10.4566 11.4584ZM13.3584 11.4584C12.9772 11.4584 12.6669 11.769 12.6669 12.15C12.6669 12.5309 12.9775 12.8415 13.3584 12.8415C13.74 12.8415 14.0506 12.5309 14.0506 12.15C14.0506 11.769 13.74 11.4584 13.3584 11.4584ZM16.2603 11.4584C15.8791 11.4584 15.5687 11.769 15.5687 12.15C15.5687 12.5309 15.8794 12.8415 16.2603 12.8415C16.6419 12.8415 16.9525 12.5309 16.9525 12.15C16.9525 11.769 16.6419 11.4584 16.2603 11.4584ZM6.48531 6.82089C6.21469 6.82089 5.99531 7.04651 5.99531 7.31745C5.99531 7.58183 6.20813 7.81401 6.48531 7.81401C6.7625 7.81401 6.98187 7.58183 6.98187 7.31745C6.98187 7.04651 6.75625 6.82089 6.48531 6.82089ZM6.58094 2.6687C5.58344 2.6687 5.125 3.25995 5.125 3.65901C5.125 3.94714 5.36875 4.08026 5.56844 4.08026C5.9675 4.08026 5.805 3.5112 6.55875 3.5112C6.92813 3.5112 7.22375 3.6737 7.22375 4.0137C7.22375 4.41276 6.81 4.64183 6.56625 4.8487C6.35187 5.03339 6.07094 5.33651 6.07094 5.97214C6.07094 6.35651 6.17438 6.46714 6.4775 6.46714C6.83969 6.46714 6.91344 6.30464 6.91344 6.16401C6.91344 5.77964 6.92094 5.55808 7.32719 5.24026C7.52656 5.08495 8.15469 4.58245 8.15469 3.88776C8.155 3.19339 7.52688 2.6687 6.58094 2.6687Z" fill="black"/>
</g>
<defs>
<clipPath id="clip0_6710_163944">
<rect width="20" height="20" fill="white"/>
</clipPath>
</defs>
</svg>
