<svg width="16" height="16" viewBox="0 0 16 16" fill="none" xmlns="http://www.w3.org/2000/svg">
<path d="M3.42597 9.3335C2.9423 8.53896 2.66406 7.60803 2.66406 6.61274C2.66406 3.69709 5.05188 1.3335 7.9974 1.3335C10.9429 1.3335 13.3307 3.69709 13.3307 6.61274C13.3307 7.60803 13.0525 8.53896 12.5688 9.3335" stroke="#2563EB" stroke-linecap="round"/>
<path d="M4.92452 11.3986C4.86327 11.2142 4.83265 11.122 4.83622 11.0474C4.84376 10.8894 4.94336 10.7506 5.09032 10.6935C5.1598 10.6665 5.25664 10.6665 5.45032 10.6665H10.5549C10.7486 10.6665 10.8454 10.6665 10.9149 10.6935C11.0619 10.7506 11.1615 10.8894 11.169 11.0474C11.1725 11.122 11.1419 11.2142 11.0807 11.3986C10.9675 11.7394 10.9109 11.9099 10.8236 12.0478C10.6407 12.3369 10.3541 12.5443 10.023 12.627C9.86494 12.6665 9.68594 12.6665 9.328 12.6665H6.6772C6.31924 12.6665 6.14027 12.6665 5.98223 12.627C5.65116 12.5443 5.36448 12.3369 5.1816 12.0478C5.0943 11.9099 5.03771 11.7394 4.92452 11.3986Z" stroke="#2563EB"/>
<path d="M10 12.6665L9.9138 13.0976C9.81953 13.569 9.7724 13.8046 9.66673 13.9909C9.50347 14.2788 9.2388 14.4958 8.9244 14.5994C8.72107 14.6665 8.48073 14.6665 8 14.6665C7.51927 14.6665 7.27893 14.6665 7.0756 14.5994C6.7612 14.4958 6.49656 14.2788 6.33325 13.9909C6.22763 13.8046 6.18049 13.569 6.08621 13.0976L6 12.6665" stroke="#2563EB"/>
<path d="M8 10.6668V7.3335" stroke="#2563EB" stroke-linecap="round" stroke-linejoin="round"/>
</svg>
